<svg id="Layer_1" enable-background="new 0 0 512.346 512.346" height="512" viewBox="0 0 512.346 512.346" width="512" xmlns="http://www.w3.org/2000/svg"><g><g><path d="m485.127 185.893c8.108-8.108 8.108-21.252 0-29.36l-23.242-23.242c-3.46-3.46-8.92-3.732-12.805-.757-25.285 19.365-61.621 17.481-84.754-5.653-23.134-23.134-25.018-59.47-5.653-84.754 2.976-3.885 2.703-9.345-.757-12.805l-23.241-23.241c-8.108-8.108-21.253-8.108-29.36 0l-116.066 116.065 62.544 117.268 117.268 62.544z" fill="#fff5f5"/><path d="m485.127 156.533-23.242-23.242c-3.46-3.46-8.92-3.733-12.805-.757-25.285 19.365-61.62 17.481-84.754-5.653-.019-.019-.036-.038-.054-.057l-112.517 112.518.039.073 117.268 62.544 116.065-116.065c8.108-8.108 8.108-21.253 0-29.361z" fill="#e3dff6"/><path d="m189.249 122.146-152.569 152.569c-8.108 8.108-8.108 21.253 0 29.36l150.453 150.453c8.108 8.108 21.253 8.108 29.36 0l152.569-152.569z" fill="#ff405c"/><g><path d="m247.36 85.796-10.88-10.881-22.585 22.585 10.881 10.881c6.237 6.237 16.348 6.237 22.585 0 6.236-6.237 6.236-16.349-.001-22.585z" fill="#c3e4f9"/><path d="m302.317 140.752-9.787-9.787c-6.237-6.237-16.348-6.237-22.585 0s-6.237 16.348 0 22.585l9.787 9.787c6.237 6.237 16.348 6.237 22.585 0 6.236-6.236 6.236-16.348 0-22.585z" fill="#e3dff6"/><g fill="#979fef"><path d="m357.273 195.709-9.787-9.787c-6.237-6.237-16.348-6.237-22.585 0s-6.237 16.348 0 22.585l9.787 9.787c6.237 6.237 16.348 6.237 22.585 0s6.237-16.349 0-22.585z"/><path d="m402.443 240.879c-6.237-6.237-16.348-6.237-22.585 0s-6.237 16.348 0 22.585l13.838 13.838 22.585-22.585z"/></g></g><path d="m216.492 454.528 152.569-152.569-89.961-89.962-167.25 167.249 75.282 75.282c8.108 8.108 21.253 8.108 29.36 0z" fill="#c1126b"/></g><path d="m275.432 20.761c0-11.466-9.295-20.761-20.761-20.761h-32.869c-4.894 0-8.947 3.668-9.59 8.52-4.186 31.572-31.212 55.933-63.928 55.933s-59.742-24.361-63.928-55.933c-.642-4.852-4.695-8.52-9.588-8.52h-32.869c-11.466 0-20.761 9.295-20.761 20.761v164.141l127.147 38.696 127.147-38.696z" fill="#fff5f5"/><path d="m254.671 0h-32.869c-4.894 0-8.947 3.668-9.59 8.52-4.186 31.572-31.212 55.933-63.928 55.933-.026 0-.052-.002-.079-.002v159.123l.079.024 127.147-38.696v-164.142c.001-11.465-9.294-20.76-20.76-20.76z" fill="#e3dff6"/><path d="m21.138 184.902v306.683c0 11.466 9.295 20.761 20.761 20.761h212.772c11.466 0 20.761-9.295 20.761-20.761v-306.683z" fill="#ff405c"/><g><path d="m36.526 118.108h-15.388v31.94h15.387c8.82 0 15.97-7.15 15.97-15.97s-7.149-15.97-15.969-15.97z" fill="#e3dff6"/><path d="m114.246 118.108h-13.841c-8.82 0-15.97 7.15-15.97 15.97s7.15 15.97 15.97 15.97h13.841c8.82 0 15.97-7.15 15.97-15.97s-7.15-15.97-15.97-15.97z" fill="#e3dff6"/><g fill="#979fef"><path d="m191.966 118.108h-13.841c-8.82 0-15.97 7.15-15.97 15.97s7.15 15.97 15.97 15.97h13.841c8.82 0 15.97-7.15 15.97-15.97s-7.15-15.97-15.97-15.97z"/><path d="m255.846 118.108c-8.82 0-15.97 7.15-15.97 15.97s7.15 15.97 15.97 15.97h19.57v-31.94z"/></g></g><path d="m275.432 491.586v-306.684h-127.226v327.444h106.465c11.466 0 20.761-9.295 20.761-20.76z" fill="#e20059"/><path d="m219.445 357.881c-4.834-7.379-14.736-9.439-22.109-4.606l-33.08 21.672v-58.392l29.926-29.926c6.237-6.237 6.237-16.348 0-22.585-6.236-6.237-16.348-6.237-22.585 0l-23.311 23.311-23.311-23.311c-6.236-6.237-16.348-6.237-22.585 0s-6.237 16.348 0 22.585l29.926 29.926v58.949l-35.364-22.368c-7.455-4.716-17.318-2.493-22.033 4.959-4.715 7.454-2.494 17.319 4.959 22.034l52.438 33.167v27.397c0 8.82 7.15 15.97 15.97 15.97s15.97-7.15 15.97-15.97v-27.563l50.583-33.14c7.377-4.832 9.439-14.731 4.606-22.109z" fill="#fff5f5"/><path d="m197.335 353.275-33.08 21.672v-58.392l29.926-29.926c6.237-6.237 6.237-16.348 0-22.585-6.236-6.237-16.348-6.237-22.585 0l-23.311 23.311-.079-.079v169.384c.026 0 .052.004.079.004 8.82 0 15.97-7.15 15.97-15.97v-27.563l50.583-33.14c7.378-4.833 9.441-14.732 4.607-22.11s-14.736-9.439-22.11-4.606z" fill="#e3dff6"/></g></svg>