<?xml version="1.0" encoding="iso-8859-1"?>
<!-- Generator: Adobe Illustrator 19.0.0, SVG Export Plug-In . SVG Version: 6.00 Build 0)  -->
<svg version="1.1" id="Capa_1" xmlns="http://www.w3.org/2000/svg" xmlns:xlink="http://www.w3.org/1999/xlink" x="0px" y="0px"
	 viewBox="0 0 512 512" style="enable-background:new 0 0 512 512;" xml:space="preserve">
<linearGradient id="SVGID_1_" gradientUnits="userSpaceOnUse" x1="0" y1="258" x2="512" y2="258" gradientTransform="matrix(1 0 0 -1 0 514)">
	<stop  offset="0" style="stop-color:#00F2FE"/>
	<stop  offset="0.021" style="stop-color:#03EFFE"/>
	<stop  offset="0.293" style="stop-color:#24D2FE"/>
	<stop  offset="0.554" style="stop-color:#3CBDFE"/>
	<stop  offset="0.796" style="stop-color:#4AB0FE"/>
	<stop  offset="1" style="stop-color:#4FACFE"/>
</linearGradient>
<path style="fill:url(#SVGID_1_);" d="M145,210c0,11.046-8.954,20-20,20s-20-8.954-20-20l0,0c0-11.046,8.954-20,20-20
	S145,198.954,145,210L145,210z M319,210L319,210c0-11.046-8.954-20-20-20s-20,8.954-20,20l0,0c0,11.046,8.954,20,20,20
	S319,221.046,319,210z M406,210L406,210c0-11.046-8.954-20-20-20s-20,8.954-20,20l0,0c0,11.046,8.954,20,20,20S406,221.046,406,210z
	 M145,297c0-11.046-8.954-20-20-20s-20,8.954-20,20l0,0c0,11.046,8.954,20,20,20S145,308.046,145,297L145,297z M125,364
	c-11.046,0-20,8.954-20,20l0,0c0,11.046,8.954,20,20,20s20-8.954,20-20l0,0C145,372.954,136.046,364,125,364z M232,210
	c0-11.046-8.954-20-20-20s-20,8.954-20,20l0,0c0,11.046,8.954,20,20,20S232,221.046,232,210L232,210z M232,297
	c0-11.046-8.954-20-20-20s-20,8.954-20,20l0,0c0,11.046,8.954,20,20,20S232,308.046,232,297L232,297z M212,364
	c-11.046,0-20,8.954-20,20l0,0c0,11.046,8.954,20,20,20s20-8.954,20-20l0,0C232,372.954,223.046,364,212,364z M512,391
	c0,66.72-54.28,121-121,121s-121-54.28-121-121s54.28-121,121-121S512,324.28,512,391z M472,391c0-44.664-36.337-81-81-81
	s-81,36.336-81,81s36.337,81,81,81S472,435.664,472,391z M420,371h-9v-21c0-11.046-8.954-20-20-20s-20,8.954-20,20v41
	c0,11.046,8.954,20,20,20h29c11.046,0,20-8.954,20-20S431.046,371,420,371z M432,40h-26V20c0-11.046-8.954-20-20-20s-20,8.954-20,20
	v20h-91V20c0-11.046-8.954-20-20-20s-20,8.954-20,20v20h-90V20c0-11.046-8.954-20-20-20s-20,8.954-20,20v20H80
	C35.888,40,0,75.888,0,120v312c0,44.112,35.888,80,80,80h153c11.046,0,20-8.954,20-20s-8.954-20-20-20H80c-22.056,0-40-17.944-40-40
	V120c0-22.056,17.944-40,40-40h25v20c0,11.046,8.954,20,20,20s20-8.954,20-20V80h90v20c0,11.046,8.954,20,20,20
	c11.046,0,20-8.954,20-20V80h91v20c0,11.046,8.954,20,20,20s20-8.954,20-20V80h26c22.056,0,40,17.944,40,40v114
	c0,11.046,8.954,20,20,20s20-8.954,20-20V120C512,75.888,476.112,40,432,40z"/>
<g>
</g>
<g>
</g>
<g>
</g>
<g>
</g>
<g>
</g>
<g>
</g>
<g>
</g>
<g>
</g>
<g>
</g>
<g>
</g>
<g>
</g>
<g>
</g>
<g>
</g>
<g>
</g>
<g>
</g>
</svg>
