<svg id="Layer_1" enable-background="new 0 0 511.557 511.557" height="512" viewBox="0 0 511.557 511.557" width="512" xmlns="http://www.w3.org/2000/svg"><g><path d="m0 79.464v93.833c0 4.534 2.805 8.536 7 10.256 28.129 11.533 47.945 39.178 47.945 71.461s-19.816 59.928-47.945 71.461c-4.195 1.72-7 5.723-7 10.256v95.362c0 6.186 5.015 11.2 11.2 11.2h112.788l146.068-187.515-146.068-187.514h-112.788c-6.185 0-11.2 5.014-11.2 11.2z" fill="#979fef"/><path d="m511.557 170.712v-91.248c0-6.186-5.015-11.2-11.2-11.2h-376.369v375.03h376.369c6.186 0 11.2-5.015 11.2-11.2v-92.777c0-4.899-3.193-9.203-7.863-10.684-31.224-9.901-53.852-39.117-53.852-73.618s22.628-63.717 53.852-73.618c4.67-1.482 7.863-5.786 7.863-10.685z" fill="#fff5f5"/><path d="m188.617 132.544h197.842v97.067h-197.842z" fill="#e3dff6"/><path d="m500.357 68.264h-244.357v375.03h244.357c6.186 0 11.2-5.015 11.2-11.2v-92.777c0-4.899-3.193-9.203-7.863-10.684-31.224-9.901-53.852-39.117-53.852-73.618 0-34.502 22.628-63.717 53.852-73.618 4.67-1.481 7.863-5.785 7.863-10.684v-91.249c0-6.186-5.014-11.2-11.2-11.2z" fill="#e3dff6"/><path d="m256 132.544h130.459v97.067h-130.459z" fill="#979fef"/><path d="m386.459 245.546h-197.843c-8.8 0-15.934-7.134-15.934-15.934v-97.067c0-8.8 7.134-15.934 15.934-15.934h197.842c8.8 0 15.934 7.134 15.934 15.934v97.067c.001 8.8-7.133 15.934-15.933 15.934zm-181.908-31.869h165.973v-65.199h-165.973z" fill="#5a69e6"/><path d="m386.459 116.61h-130.459v31.869h114.524v65.198h-114.524v31.869h130.459c8.8 0 15.934-7.134 15.934-15.934v-97.068c0-8.8-7.134-15.934-15.934-15.934z" fill="#405580"/><g><path d="m386.585 319.941h-197.969c-8.8 0-15.934-7.134-15.934-15.934s7.134-15.934 15.934-15.934h197.969c8.8 0 15.934 7.134 15.934 15.934s-7.134 15.934-15.934 15.934z" fill="#2d3751"/></g><g><path d="m386.585 388.094h-197.969c-8.8 0-15.934-7.134-15.934-15.934s7.134-15.934 15.934-15.934h197.969c8.8 0 15.934 7.134 15.934 15.934s-7.134 15.934-15.934 15.934z" fill="#2d3751"/></g><g fill="#0a1133"><path d="m386.585 288.072h-130.585v31.869h130.585c8.8 0 15.934-7.134 15.934-15.934s-7.134-15.935-15.934-15.935z"/><path d="m386.585 356.225h-130.585v31.869h130.585c8.8 0 15.934-7.134 15.934-15.934s-7.134-15.935-15.934-15.935z"/></g></g></svg>