<svg height="512" viewBox="0 0 60 57" width="512" xmlns="http://www.w3.org/2000/svg"><g id="Page-1" fill="none" fill-rule="evenodd"><g id="012---Card" fill-rule="nonzero"><path id="Shape" d="m58.64 22.32-2.4 6.57-4.79 13.16c-.1215016.3358064-.2720726.6603706-.45.97v-14.02c0-3.3137085-2.6862915-6-6-6h-38c-.65996062-.0019378-1.31562292.1062126-1.94.32l4.2-11.53 2.39-6.57c.5434704-1.49598943 1.6590809-2.71473939 3.1013099-3.38802968 1.4422291-.67329029 3.0928834-.74594353 4.5886901-.20197032l35.71 13c1.4959894.5434704 2.7147394 1.6590809 3.3880297 3.1013099.6732903 1.4422291.7459435 3.0928834.2019703 4.5886901z" fill="#e8edfc"/><path id="Shape" d="m55.05 14.63-35.71-13c-1.1381021-.41513374-2.3755925-.47407846-3.548-.169.183.048.366.1.548.169l35.71 13c1.4959894.5434704 2.7147394 1.6590809 3.3880297 3.1013099.6732903 1.4422291.7459435 3.0928834.2019703 4.5886901l-2.4 6.57-2.24 6.154v7.976c.1779274-.3096294.3284984-.6341936.45-.97l4.79-13.16 2.4-6.57c.5439732-1.4958067.47132-3.146461-.2019703-4.5886901-.6732903-1.442229-1.8920403-2.5578395-3.3880297-3.1013099z" fill="#cad9fc"/><path id="Shape" d="m50.59 26.83 5.65 2.06 2.4-6.57-46.99-17.1-2.39 6.57 30.8 11.21z" fill="#a4c2f7"/><path id="Shape" d="m11.65 5.22-.351.964 44.341 16.136-2.047 5.605 2.647.965 2.4-6.57z" fill="#7facfa"/><path id="Shape" d="m51 29v21c0 3.3137085-2.6862915 6-6 6h-38c-3.3137085 0-6-2.6862915-6-6v-21c.00329103-2.5655018 1.63368564-4.846448 4.06-5.68.62437708-.2137874 1.28003938-.3219378 1.94-.32h38c1.5912989 0 3.1174224.632141 4.2426407 1.7573593s1.7573593 2.6513418 1.7573593 4.2426407z" fill="#e8edfc"/><path id="Shape" d="m45 23h-3c3.3137085 0 6 2.6862915 6 6v21c0 3.3137085-2.6862915 6-6 6h3c3.3137085 0 6-2.6862915 6-6v-21c0-3.3137085-2.6862915-6-6-6z" fill="#cad9fc"/><rect id="Rectangle-path" fill="#e8edfc" height="8" rx="2" width="10" x="6" y="28"/><circle id="Oval" cx="43" cy="32" fill="#e8edfc" r="3"/><circle id="Oval" cx="37" cy="32" fill="#e8edfc" r="3"/><path id="Shape" d="m4 50v-21c.00329103-2.5655018 1.63368564-4.846448 4.06-5.68 5.12-14.056 3.594-9.864 6.59-18.1.6747396-1.84465268 2.2088343-3.24281487 4.108-3.744-.387275-.14043532-.7971309-.20823612-1.209-.2-2.6154984-.1075883-5.0006479 1.48763209-5.9 3.946-3 8.236-1.47 4.044-6.59 18.1-2.42522571.8336537-4.05500359 3.1134957-4.059 5.678v21c0 3.3137085 2.6862915 6 6 6h3c-3.3137085 0-6-2.6862915-6-6z" fill="#fff"/><path id="Rectangle-path" d="m0 42h2v8h-2z" fill="#fff"/><g fill="#428dff"><circle id="Oval" cx="1" cy="46" r="1"/><path id="Shape" d="m55.392 13.69-35.711-13c-3.6333499-1.31165795-7.6434729.56041822-8.971 4.188l-6.434 17.674c-2.58978925 1.0969197-4.27324317 3.6354863-4.276 6.448v13c0 .5522847.44771525 1 1 1s1-.4477153 1-1v-13c.00330612-2.7600532 2.23994685-4.9966939 5-5h38c2.7600532.0033061 4.9966939 2.2399468 5 5v21c-.0033061 2.7600532-2.2399468 4.9966939-5 5h-38c-2.76005315-.0033061-4.99669388-2.2399468-5-5 0-.5522847-.44771525-1-1-1s-1 .4477153-1 1c.00440864 3.8641657 3.13583434 6.9955914 7 7h38c3.8641657-.0044086 6.9955914-3.1358343 7-7v-6.739c.1496692-.2804319.2799736-.5707767.39-.869l7.149-19.618.041-.111c1.314156-3.6339905-.5585497-7.6463564-4.188-8.973zm-48.792 8.33 3.259-8.949 24.53 8.929h-27.389c-.136 0-.269.013-.4.02zm38.4-.02h-4.765l-29.693-10.808 1.618-4.449.088-.241 45.109 16.415-1.713 4.691-4.311-1.572c-1.1496406-2.4596723-3.6179217-4.0326997-6.333-4.036zm7 15.621v-8.621c0-.2-.013-.4-.031-.6l2.994 1.092zm5.946-16.621-44.918-16.343c1.2462069-2.02094628 3.7380428-2.89217089 5.972-2.088l35.71 13c2.2283707.8159632 3.5790798 3.082867 3.236 5.431z"/><path id="Shape" d="m14 27h-6c-1.65685425 0-3 1.3431458-3 3v4c0 1.6568542 1.34314575 3 3 3h6c1.6568542 0 3-1.3431458 3-3v-4c0-1.6568542-1.3431458-3-3-3zm1 3v1h-4v-2h3c.5522847 0 1 .4477153 1 1zm-7-1h1v2h-2v-1c0-.5522847.44771525-1 1-1zm-1 5v-1h2v2h-1c-.55228475 0-1-.4477153-1-1zm7 1h-3v-2h4v1c0 .5522847-.4477153 1-1 1z"/><path id="Shape" d="m15 44c0-.5522847-.4477153-1-1-1h-6c-.55228475 0-1 .4477153-1 1s.44771525 1 1 1h6c.5522847 0 1-.4477153 1-1z"/><path id="Shape" d="m24 45c.5522847 0 1-.4477153 1-1s-.4477153-1-1-1h-6c-.5522847 0-1 .4477153-1 1s.4477153 1 1 1z"/><path id="Shape" d="m27 44c0 .5522847.4477153 1 1 1h6c.5522847 0 1-.4477153 1-1s-.4477153-1-1-1h-6c-.5522847 0-1 .4477153-1 1z"/><path id="Shape" d="m38 43c-.5522847 0-1 .4477153-1 1s.4477153 1 1 1h6c.5522847 0 1-.4477153 1-1s-.4477153-1-1-1z"/><path id="Shape" d="m8 49c-.55228475 0-1 .4477153-1 1s.44771525 1 1 1h2c.5522847 0 1-.4477153 1-1s-.4477153-1-1-1z"/><path id="Shape" d="m15 51h2c.5522847 0 1-.4477153 1-1s-.4477153-1-1-1h-2c-.5522847 0-1 .4477153-1 1s.4477153 1 1 1z"/><path id="Shape" d="m47 32c.0073962-1.6680192-1.0253639-3.1639686-2.5877074-3.748285-1.5623435-.5843165-3.3232998-.1332171-4.4122926 1.130285-1.093225-1.2628661-2.8560646-1.7134762-4.4212104-1.1301323-1.5651459.5833438-2.6030376 2.0778115-2.6030376 3.7481323s1.0378917 3.1647885 2.6030376 3.7481323c1.5651458.5833439 3.3279854.1327338 4.4212104-1.1301323 1.0889928 1.2635021 2.8499491 1.7146015 4.4122926 1.130285 1.5623435-.5843164 2.5951036-2.0802658 2.5877074-3.748285zm-10 2c-1.1045695 0-2-.8954305-2-2s.8954305-2 2-2 2 .8954305 2 2-.8954305 2-2 2zm6 0c-1.1045695 0-2-.8954305-2-2s.8954305-2 2-2 2 .8954305 2 2-.8954305 2-2 2z"/></g></g></g></svg>