<svg id="Layer_1" enable-background="new 0 0 512 512" height="512" viewBox="0 0 512 512" width="512" xmlns="http://www.w3.org/2000/svg"><g><path d="m493.621 291.944c2.25-11.021 2.708-24.364 2.708-35.944 0-129.8-105.224-235.024-235.024-235.024-40.563 0-86.361 14.163-119.662 32.253 0 0-68.106 44.499-104.891 132.865-8.17 19.624-10.471 47.597-10.471 69.906 0 129.8 105.224 235.024 235.024 235.024 48.675 0 96.558-16.477 134.068-41.818-.001 0 77.413-55.217 98.248-157.262z" fill="#979fef"/><path d="m261.305 20.976v470.048l90.815-15 101.893-90.43 42.316-129.594-12.167-88.742-65.395-85.734-115.347-60.548z" fill="#5a69e6"/><path d="m496.329 241.049h-24.335c-8.284 0-15 6.716-15 15s6.716 15 15 15h24.335c8.284 0 15-6.716 15-15s-6.716-15-15-15z" fill="#ff405c"/><path d="m438.099 79.206c-47.224-47.223-110.01-73.23-176.794-73.23-39.539 0-88.135 13.056-126.822 34.073l-1.044.624c-2.939 1.92-72.413 48.079-110.535 139.657-9.607 23.076-11.624 53.887-11.624 75.67 0 66.784 26.007 129.57 73.23 176.794 47.224 47.223 110.01 73.23 176.794 73.23h.043.013c.004 0 .007 0 .011-.001.023 0 .046-.001.068-.001.009.001.017.001.026.001.02 0 .039-.002.059-.002 49.43-.047 99.938-15.804 142.245-44.387l.312-.217c3.357-2.395 82.471-59.87 104.236-166.474 2.054-10.063 3.011-22.438 3.011-38.944.001-66.783-26.006-129.57-73.229-176.793zm-20.086 22.368c-12.644 5.134-31.143 11.98-53.212 18.159-11.31-24.918-24.488-44.514-36.486-59.217-5.769-7.07-11.508-13.331-17.028-18.858 39.674 9.172 76.09 29.254 105.598 58.761.382.382.75.772 1.128 1.155zm-141.575 277.685c18.581.927 39.308 3.454 59 7.201-15.708 31.903-35.291 54.074-49.644 67.499-3.263 3.053-6.396 5.789-9.337 8.226zm29.586-298.601c11.47 14.248 21.217 29.714 29.242 46.33-18.489 3.894-38.437 6.845-58.882 7.853l-.019-84.53c8.713 7.291 19.15 17.294 29.659 30.347zm-29.633 84.221c24.79-1.101 48.723-4.791 70.482-9.613 9.024 26.317 14.278 55.072 15.677 86.106.021.465.07.923.132 1.375-2.071-1.08-4.421-1.699-6.919-1.699h-79.355zm-235.111 91.121c0-26.926 3.31-49.706 9.318-64.142 32.951-79.155 93.164-121.897 98.823-125.784 29.64-15.982 65.458-26.735 96.938-29.429v438.869c-53.144-3.542-102.621-25.92-140.635-63.934-41.557-41.557-64.444-96.809-64.444-155.58zm437.644 32.943c-10.062 49.281-34.471 86.792-53.176 109.583-19.678 23.974-37.407 37.234-38.975 38.387-22.273 15.01-47.768 26.146-73.91 32.62 18.616-18.74 39.548-45.747 55.433-82.712 2.523-5.873.993-12.456-3.329-16.664-1.459-5.135-5.618-9.327-11.196-10.56-25.065-5.54-52.936-9.233-77.34-10.362l-.017-78.186h79.348c8.284 0 15-6.716 15-15 0-.702-.065-1.388-.159-2.065 2.27 1.187 4.865 1.821 7.606 1.698 8.275-.374 14.683-7.385 14.309-15.661-1.599-35.463-7.916-66.05-16.653-92.117 28-8.003 50.201-16.916 62.672-22.353 27.778 37.574 42.791 82.857 42.791 130.449.001 14.241-.785 25.017-2.404 32.943z" fill="#405580"/><g><path d="m14.78 173.558 70.908 120.427c4.101 6.965 14.162 7 18.312.063l72.747-121.616c9.381-15.683 14.335-33.616 14.335-51.891v-4.164c0-51.502-41.495-92.998-92.679-92.993h-2.866c-52.765.006-95.537 42.782-95.537 95.546v.396c0 19.072 5.103 37.797 14.78 54.232z" fill="#ff7433"/><path d="m98.402 23.384h-2.866c-.022 0-.045.001-.067.001v275.807c3.327-.186 6.581-1.886 8.53-5.144l72.747-121.616c9.381-15.683 14.336-33.616 14.336-51.891v-4.164c0-51.502-41.496-92.998-92.68-92.993z" fill="#ff405c"/><circle cx="95.541" cy="119.078" fill="#fff" r="37.554"/><path d="m95.541 81.524c-.024 0-.048.002-.072.002v75.104c.024 0 .048.002.072.002 20.74 0 37.554-16.813 37.554-37.554 0-20.74-16.814-37.554-37.554-37.554z" fill="#e3dff6"/></g><path d="m438.099 79.206c-47.223-47.223-110.01-73.23-176.794-73.23v30c.063 0 .125.002.188.002v440.045c-.062 0-.125.002-.188.002v30c.064 0 .127-.002.191-.002.017 0 .035.002.052.002.016 0 .031-.003.046-.003h.004c.019 0 .037.003.056.003.042 0 .083-.004.125-.005 49.349-.1 99.756-15.851 141.99-44.385l.312-.217c3.357-2.395 82.471-59.87 104.236-166.474 2.054-10.063 3.011-22.438 3.011-38.944.001-66.784-26.006-129.571-73.229-176.794zm-21.213 21.213c.399.399.785.808 1.18 1.209-12.641 5.128-31.085 11.947-53.077 18.104-11.31-24.918-24.488-44.514-36.486-59.217-5.749-7.045-11.468-13.287-16.969-18.8 39.578 9.2 75.905 29.258 105.352 58.704zm-69.825 54.848c9.024 26.317 14.278 55.072 15.677 86.106.021.465.07.923.132 1.375-2.071-1.08-4.421-1.699-6.919-1.699h-79.355l-.017-76.169c24.79-1.102 48.723-4.792 70.482-9.613zm-70.489-20.426-.019-84.53c8.713 7.29 19.149 17.293 29.659 30.347 11.47 14.248 21.217 29.714 29.242 46.33-18.489 3.894-38.436 6.845-58.882 7.853zm.054 244.418c18.581.927 39.308 3.454 59 7.201-15.708 31.903-35.291 54.074-49.644 67.499-3.263 3.053-6.396 5.789-9.337 8.226zm202.298-90.316c-10.062 49.281-34.471 86.792-53.176 109.583-19.678 23.974-37.407 37.234-38.975 38.387-22.202 14.963-47.606 26.077-73.661 32.559 18.601-18.738 39.505-45.727 55.373-82.652 2.523-5.873.993-12.456-3.329-16.664-1.459-5.135-5.618-9.327-11.196-10.56-25.065-5.541-52.936-9.233-77.34-10.362l-.017-78.186h79.348c8.284 0 15-6.716 15-15 0-.702-.065-1.388-.159-2.065 2.27 1.187 4.865 1.821 7.606 1.698 8.275-.374 14.683-7.385 14.309-15.661-1.599-35.463-7.916-66.05-16.653-92.117 27.89-7.972 50.031-16.848 62.53-22.29 27.749 37.562 42.746 82.82 42.746 130.386-.001 14.242-.787 25.018-2.406 32.944z" fill="#0a1133"/><g><path d="m335.698 369.044 70.908 120.427c4.101 6.965 14.162 7 18.311.063l72.747-121.616c9.382-15.683 14.336-33.616 14.336-51.891v-4.164c0-51.502-41.495-92.998-92.679-92.993h-2.866c-52.765.005-95.536 42.781-95.536 95.546v.396c-.001 19.072 5.103 37.797 14.779 54.232z" fill="#ff7433"/><path d="m419.321 218.87h-2.866c-.022 0-.045.001-.067.001v275.807c3.327-.186 6.581-1.886 8.53-5.144l72.747-121.616c9.381-15.683 14.335-33.616 14.335-51.891v-4.164c0-51.502-41.495-92.998-92.679-92.993z" fill="#ff405c"/><circle cx="416.459" cy="314.564" fill="#fff" r="37.554"/><path d="m416.459 277.01c-.024 0-.048.002-.072.002v75.104c.024 0 .048.002.072.002 20.74 0 37.554-16.814 37.554-37.554 0-20.741-16.813-37.554-37.554-37.554z" fill="#e3dff6"/></g></g></svg>