<svg id="Layer_1" enable-background="new 0 0 512.047 512.047" height="512" viewBox="0 0 512.047 512.047" width="512" xmlns="http://www.w3.org/2000/svg"><g><path d="m337.211 497.047h-162.374c-12.532 0-22.692-10.16-22.692-22.692v-350.649c0-12.532 10.16-22.692 22.692-22.692h162.374c12.532 0 22.692 10.16 22.692 22.692v350.649c0 12.533-10.16 22.692-22.692 22.692z" fill="#cafff7"/><path d="m337.211 101.014h-81.187v396.033h81.187c12.532 0 22.692-10.159 22.692-22.692v-350.649c0-12.532-10.16-22.692-22.692-22.692z" fill="#00e4ef"/><path d="m204.921 0c-7.24 0-13.108 5.869-13.108 13.108v81.554h111.631l-47.42-94.662z" fill="#5a69e6"/><path d="m320.235 13.108c0-7.24-5.869-13.108-13.108-13.108h-51.103v94.662h64.211z" fill="#405580"/><path d="m337.211 512.047h-162.375c-20.783 0-37.691-16.909-37.691-37.692v-350.649c0-20.783 16.908-37.692 37.691-37.692h162.375c20.783 0 37.691 16.909 37.691 37.692v350.649c.001 20.784-16.908 37.692-37.691 37.692zm-162.375-396.033c-4.241 0-7.691 3.451-7.691 7.692v350.649c0 4.241 3.45 7.692 7.691 7.692h162.375c4.241 0 7.691-3.451 7.691-7.692v-350.649c0-4.241-3.45-7.692-7.691-7.692z" fill="#e3dff6"/><path d="m337.211 86.014h-81.188v30h81.188c4.241 0 7.691 3.451 7.691 7.692v350.649c0 4.241-3.45 7.692-7.691 7.692h-81.188v30h81.188c20.783 0 37.691-16.909 37.691-37.692v-350.649c.001-20.783-16.908-37.692-37.691-37.692z" fill="#979fef"/><path d="m137.145 192.464h237.758v211.052h-237.758z" fill="#fff5f5"/><path d="m256.024 192.464h118.879v211.052h-118.879z" fill="#e3dff6"/><path d="m256.188 366.997c-1.485 0-2.955-.062-4.409-.184-34.117-2.868-53.637-40.467-37.328-70.57l34.248-63.216c2.898-5.35 10.558-5.4 13.526-.089l35.063 62.741c17.244 30.856-3.64 69.844-38.959 71.276-.711.027-1.424.042-2.141.042z" fill="#00e4ef"/><path d="m262.224 232.904c-1.374-2.458-3.754-3.753-6.201-3.92v137.976c.055 0 .109.003.164.003.717 0 1.431-.014 2.141-.043 35.319-1.432 56.203-40.42 38.959-71.276z" fill="#00e2dc"/></g></svg>