<svg width="202" height="42" viewBox="0 0 202 42" fill="none" xmlns="http://www.w3.org/2000/svg">
<path d="M173.412 5.2886L165.878 4.10524L164 5.98364L170.264 8.4371L173.412 5.2886Z" fill="#0050C3"/>
<path d="M172.616 10.7314L175.063 16.9803L176.942 15.1019L175.761 7.58592L172.616 10.7314Z" fill="#0050C3"/>
<path d="M172.616 10.7314L175.063 16.9803L176.942 15.1019L175.761 7.58595L172.616 10.7314Z" fill="#00317E"/>
<path d="M170.492 15.6446L170.656 12.8475L177.992 5.51118C178.272 5.23195 178.606 4.64821 178.806 4.09172C179.096 3.28263 179.061 2.66663 178.704 2.31029C178.348 1.95401 177.732 1.91895 176.923 2.20898C176.366 2.4085 175.783 2.74283 175.503 3.02209L168.167 10.3584L165.37 10.5222L164.029 11.8634L167.481 13.5293L169.151 16.9854L170.492 15.6446Z" fill="#D3D0F3"/>
<path d="M167.486 13.5384L169.151 16.9854L170.492 15.6445L170.656 12.8475L177.992 5.51117C178.272 5.23194 178.606 4.6482 178.806 4.09171C179.094 3.28628 179.061 2.67227 178.709 2.31523L167.486 13.5384Z" fill="#B9B6EC"/>
<path d="M166.214 14.1782L166.836 14.8005L169.109 12.5273L168.487 11.9051L166.214 14.1782Z" fill="#0050C3"/>
<path d="M166.836 14.8006L169.109 12.5275L168.803 12.2212L166.53 14.4943L166.836 14.8006Z" fill="#00317E"/>
<path d="M33.464 29L29.624 22.328H27.536V29H24.8V12.32H30.56C31.84 12.32 32.92 12.544 33.8 12.992C34.696 13.44 35.36 14.04 35.792 14.792C36.24 15.544 36.464 16.384 36.464 17.312C36.464 18.4 36.144 19.392 35.504 20.288C34.88 21.168 33.912 21.768 32.6 22.088L36.728 29H33.464ZM27.536 20.144H30.56C31.584 20.144 32.352 19.888 32.864 19.376C33.392 18.864 33.656 18.176 33.656 17.312C33.656 16.448 33.4 15.776 32.888 15.296C32.376 14.8 31.6 14.552 30.56 14.552H27.536V20.144ZM50.0201 25.592H43.0361L41.8361 29H38.9801L44.9561 12.296H48.1241L54.1001 29H51.2201L50.0201 25.592ZM49.2521 23.36L46.5401 15.608L43.8041 23.36H49.2521ZM74.2664 12.32V29H71.5304V17.576L66.4424 29H64.5464L59.4344 17.576V29H56.6984V12.32H59.6504L65.5064 25.4L71.3384 12.32H74.2664ZM88.6385 12.32V14.552H84.1985V29H81.4625V14.552H76.9985V12.32H88.6385ZM100.073 29L96.2334 22.328H94.1454V29H91.4094V12.32H97.1694C98.4494 12.32 99.5294 12.544 100.409 12.992C101.305 13.44 101.969 14.04 102.401 14.792C102.849 15.544 103.073 16.384 103.073 17.312C103.073 18.4 102.753 19.392 102.113 20.288C101.489 21.168 100.521 21.768 99.2094 22.088L103.337 29H100.073ZM94.1454 20.144H97.1694C98.1934 20.144 98.9614 19.888 99.4734 19.376C100.001 18.864 100.265 18.176 100.265 17.312C100.265 16.448 100.009 15.776 99.4974 15.296C98.9854 14.8 98.2094 14.552 97.1694 14.552H94.1454V20.144ZM116.629 25.592H109.645L108.445 29H105.589L111.565 12.296H114.733L120.709 29H117.829L116.629 25.592ZM115.861 23.36L113.149 15.608L110.413 23.36H115.861ZM137.684 12.32L131.42 29H128.252L121.964 12.32H124.892L129.836 26.192L134.804 12.32H137.684ZM142.708 14.528V19.424H148.468V21.656H142.708V26.768H149.188V29H139.972V12.296H149.188V14.528H142.708ZM155.294 26.792H160.934V29H152.558V12.32H155.294V26.792Z" fill="#0F194D"/>
</svg>
